<?xml version="1.0" encoding="utf-8"?>
<!-- Generator: Adobe Illustrator 16.0.0, SVG Export Plug-In . SVG Version: 6.00 Build 0)  -->
<!DOCTYPE svg PUBLIC "-//W3C//DTD SVG 1.1//EN" "http://www.w3.org/Graphics/SVG/1.1/DTD/svg11.dtd">
<svg version="1.1" id="Layer_1" xmlns="http://www.w3.org/2000/svg" xmlns:xlink="http://www.w3.org/1999/xlink" x="0px" y="0px"
	 width="259.731px" height="498.708px" viewBox="0 0 259.731 498.708" enable-background="new 0 0 259.731 498.708"
	 xml:space="preserve">
<g>
	<path fill-rule="evenodd" clip-rule="evenodd" fill="#EA1C2D" d="M84.799,0h90.134c12.558,0,22.831,9.39,22.831,20.868v82.383
		c0,11.477-10.273,20.867-22.831,20.867H84.799c-12.557,0-22.831-9.39-22.831-20.867V20.868C61.968,9.39,72.242,0,84.799,0L84.799,0
		z"/>
	<path fill-rule="evenodd" clip-rule="evenodd" fill="#FFFFFF" d="M133.506,30.696v61.831h17.136
		c5.344-3.579,12.15-11.608,12.15-20.426h13.575v34.994H88.256V92.527c6.863-0.153,13.121,0.415,13.121-6.708V30.696H90.668V17.135
		h53.546l-0.027,13.561H133.506L133.506,30.696z"/>
	<path fill-rule="evenodd" clip-rule="evenodd" fill="#EA1C2D" d="M43.668,261.312h172.396c24.019,0,43.668,17.96,43.668,39.913
		v157.57c0,21.953-19.649,39.913-43.668,39.913H43.668C19.65,498.708,0,480.748,0,458.795v-157.57
		C0,279.271,19.65,261.312,43.668,261.312L43.668,261.312z"/>
	<path fill-rule="evenodd" clip-rule="evenodd" fill="#F4F0F4" d="M141.365,394.109l36.413-55.689v55.689H141.365L141.365,394.109z
		 M158.501,443.373v27.845h79.25v-27.845h-10.71c-5.013,0-8.567-3.554-8.567-8.568v-12.852h19.277v-27.844h-19.277v-98.527h-40.695
		l-62.115,98.527v27.844h62.115v12.852c0,0,0.396,4.881-1.028,6.306c-2.5,2.5-7.54,2.263-7.54,2.263H158.501L158.501,443.373z"/>
	<path fill-rule="evenodd" clip-rule="evenodd" fill="#F4F0F4" d="M34.271,444.515v22.419v4.284h79.251v-26.703h-10.71
		c-5.014,0-8.568-4.695-8.568-9.71V295.582H59.973c-0.612,7.356-9.223,20.278-21.418,21.419h-6.425v27.844h21.418v89.96
		c0,4.802-1.548,8.056-6.284,9.71H34.271z"/>
	<path fill-rule="evenodd" clip-rule="evenodd" fill="#EA1C2D" d="M84.799,128.626h90.134c12.558,0,22.831,9.39,22.831,20.868
		v82.382c0,11.478-10.273,20.868-22.831,20.868H84.799c-12.557,0-22.831-9.39-22.831-20.868v-82.382
		C61.968,138.017,72.242,128.626,84.799,128.626L84.799,128.626z"/>
	<path fill-rule="evenodd" clip-rule="evenodd" fill="#FFFFFF" d="M114.856,235.609h-37.83v-13.107h6.425
		c0,0,3.425-0.55,4.314-1.234c0.717-0.551,1.853-3.104,1.853-3.104l26.669-70.372h24.995l24.965,62.413
		c2.224,3.065,3.433,12.625,16.455,12.297v13.107H126.29v-13.107h4.374c0,0,1.818,0.099,4.241-0.628
		c1.212-0.364,1.725-1.686,1.725-1.686l-2.227-13.898h-22.405l-4.268,14.319c0,0,1.138,1.172,2.818,1.508
		c2.424,0.485,4.308,0.386,4.308,0.386V235.609L114.856,235.609z"/>
	<polygon fill-rule="evenodd" clip-rule="evenodd" fill="#EB212E" points="114.14,194.951 132.022,194.951 123.865,170.612 
		114.14,194.951 	"/>
</g>
</svg>
